<svg xmlns="http://www.w3.org/2000/svg" viewBox="0 0 558.46 167.46"><defs><style>.cls-1{fill:#fff;}</style></defs><g id="Layer_2" data-name="Layer 2"><g id="Layer_1-2" data-name="Layer 1"><circle class="cls-1" cx="83.73" cy="83.73" r="83.73"/><path class="cls-1" d="M222.26,44.68c2.57,0,13.75-.83,27.34,9.42a1.43,1.43,0,0,1,.29,2l-6.53,9.15a1.41,1.41,0,0,1-2,.29,37.37,37.37,0,0,0-5.65-3.63,31.86,31.86,0,0,0-13.43-3.64c-4.43,0-11.53,1.45-11.53,8.42,0,5.62,5,7.72,20.26,11.49,10,2.59,21.58,7.37,21.58,22.64,0,14-11.67,22.89-27.76,22.89-9.7,0-23-3.68-31.44-12.19a1.41,1.41,0,0,1-.06-1.9l7.35-8.64a1.41,1.41,0,0,1,2-.13c2.79,2.61,10.94,9.22,22.06,9.22,13.25,0,12.72-8,12.72-9.17,0-2.54-1.84-6.09-8.37-7.93S206.17,88,200,80.86c-3.77-4.47-4.3-9.43-4.3-13.15C195.73,59.29,201.17,44.68,222.26,44.68Z"/><path class="cls-1" d="M290.6,63a23.73,23.73,0,0,0-18.19,8.68v-6A1.41,1.41,0,0,0,271,64.21H258.87a1.42,1.42,0,0,0-1.42,1.41v72.77a1.42,1.42,0,0,0,1.42,1.42H271a1.41,1.41,0,0,0,1.41-1.42V115.73s5.92,7.94,18.78,7.94c10.2,0,26.64-8.19,26.64-30.11S302.41,63,290.6,63Zm-3.15,47.77c-8.25,0-15.25-7.17-15.25-17.42,0-6.25,3.92-17.17,15.09-17.17s15.41,9,15.41,17.17S298.2,110.73,287.45,110.73Z"/><path class="cls-1" d="M352.87,63A30.68,30.68,0,0,0,322,93.44c0,16.2,12.59,30.37,31,30.37A30.5,30.5,0,0,0,384,93.44C384,77.64,372,63,352.87,63Zm.12,47.77c-7.79,0-16.29-6.52-16.29-17.35S344.37,76.14,353,76.14c6.63,0,16.05,5.48,16.05,17.24S360.79,110.73,353,110.73Z"/><path class="cls-1" d="M422.2,75.81V65.48a1.42,1.42,0,0,0-1.41-1.42H407v-14a1.41,1.41,0,0,0-1.41-1.42H393.62a1.42,1.42,0,0,0-1.42,1.42v14h-5.83A1.43,1.43,0,0,0,385,65.48V75.81a1.43,1.43,0,0,0,1.42,1.42h5.83v29.25c0,6.58,3,17,16.09,17a32.44,32.44,0,0,0,13.09-3,1.43,1.43,0,0,0,.82-1.29V109.06a1.13,1.13,0,0,0-1.77-.94,11.86,11.86,0,0,1-6.89,1.94c-6.25,0-6.59-4.25-6.59-7.25V77.23h13.84A1.42,1.42,0,0,0,422.2,75.81Z"/><circle class="cls-1" cx="435.75" cy="47.76" r="9.21"/><rect class="cls-1" x="428.34" y="64.06" width="14.77" height="58.42" rx="1.42"/><path class="cls-1" d="M456.29,77.23h-5.75a1.42,1.42,0,0,1-1.42-1.42V65.48a1.42,1.42,0,0,1,1.42-1.42h5.75V60.31c0-2.5.41-18.25,18.08-18.25,8.75,0,11.6,2,11.6,2V54.64c0,1.07-.37,1.94-1.5,1.5a24.28,24.28,0,0,0-7.12-1.31c-2.69,0-6.38,1.56-6.38,6.31v2.92h21.66A1.42,1.42,0,0,1,494,65l15.15,39.17,13.61-39a1.41,1.41,0,0,1,1.33-1h13.31a.9.9,0,0,1,.84,1.22c-3.12,8.07-20.81,53.85-23.09,59.66-2.5,6.37-6.75,15.06-18.94,15.06a24.67,24.67,0,0,1-13.52-3.61,1.42,1.42,0,0,1-.52-1.79l4.34-9.31a.72.72,0,0,1,1-.31,14.74,14.74,0,0,0,7.36,2.24c4.84,0,7-5.72,7-5.72L483.29,77.23H471.07v43.94a1.42,1.42,0,0,1-1.42,1.41h-12a1.41,1.41,0,0,1-1.41-1.42Z"/><path class="cls-1" d="M545.47,68.11h4.43a3.85,3.85,0,0,1,2.82,1,3,3,0,0,1,.83,2.21v0a3,3,0,0,1-2.08,3l2.37,3.46h-2.49l-2.08-3.1H547.6v3.1h-2.13Zm4.29,4.7c1,0,1.63-.55,1.63-1.37v0c0-.91-.64-1.38-1.67-1.38H547.6v2.78Z"/><path class="cls-1" d="M549.33,82.31a9.14,9.14,0,1,1,9.13-9.14A9.15,9.15,0,0,1,549.33,82.31Zm0-17.27a8.14,8.14,0,1,0,8.13,8.13A8.15,8.15,0,0,0,549.33,65Z"/><path d="M117.35,123.56a5.5,5.5,0,0,1-2.83-.78c-33-19.84-72.06-8.37-72.45-8.25A5.5,5.5,0,0,1,38.86,104c1.79-.54,44.07-13.07,81.33,9.34a5.5,5.5,0,0,1-2.84,10.21Z"/><path d="M126.82,101a6.52,6.52,0,0,1-3.23-.86C82.17,76.3,40.44,90.16,40,90.31A6.5,6.5,0,0,1,35.81,78c1.93-.66,47.78-15.89,94.26,10.84A6.5,6.5,0,0,1,126.82,101Z"/><path d="M137.11,75.36a8,8,0,0,1-3.71-.92C85.65,49.36,36.61,64.38,36.12,64.53A8,8,0,1,1,31.3,49.27c2.26-.71,56-17.14,109.54,11a8,8,0,0,1-3.73,15.09Z"/></g></g></svg>